<svg width="22" height="18" viewBox="0 0 22 18" fill="none" xmlns="http://www.w3.org/2000/svg">
<path d="M6.91856 17.9382C15.2205 17.9382 19.7613 11.0601 19.7613 5.09544C19.7613 4.90008 19.7613 4.7056 19.7481 4.512C20.6315 3.87304 21.394 3.08189 22 2.1756C21.1763 2.5408 20.3024 2.78019 19.4075 2.88576C20.3498 2.32172 21.0551 1.43447 21.3919 0.389196C20.5059 0.915004 19.5366 1.28554 18.5258 1.4848C17.8452 0.761159 16.9452 0.281984 15.9648 0.121423C14.9845 -0.0391371 13.9786 0.127868 13.1028 0.596595C12.227 1.06532 11.53 1.80964 11.1198 2.71437C10.7097 3.61909 10.6091 4.63379 10.8337 5.60144C9.03915 5.51142 7.28361 5.04505 5.681 4.2326C4.07839 3.42015 2.66453 2.27979 1.5312 0.885516C0.954001 1.87918 0.777216 3.05548 1.03684 4.1749C1.29647 5.29433 1.97298 6.27273 2.92864 6.91088C2.2103 6.88983 1.50759 6.69604 0.88 6.34592V6.40312C0.880285 7.44523 1.24103 8.45516 1.90105 9.26162C2.56107 10.0681 3.47972 10.6214 4.5012 10.8278C3.83669 11.009 3.13947 11.0355 2.46312 10.9052C2.75166 11.802 3.31323 12.5862 4.0693 13.1482C4.82538 13.7102 5.73817 14.0219 6.68008 14.0398C5.74424 14.7754 4.67254 15.3192 3.5263 15.6403C2.38006 15.9613 1.18178 16.0532 0 15.9106C2.06418 17.2352 4.46593 17.9379 6.91856 17.9346" fill="#1DA1F2"/>
</svg>
